<?xml version="1.0" encoding="UTF-8"?>
<svg width="523px" height="323px" viewBox="0 0 523 323" version="1.1" xmlns="http://www.w3.org/2000/svg" xmlns:xlink="http://www.w3.org/1999/xlink">
    <!-- Generator: Sketch 48.2 (47327) - http://www.bohemiancoding.com/sketch -->
    <title>YouTube Icon</title>
    <desc>Created with Sketch.</desc>
    <defs>
        <polygon id="path-1" points="9.70899628 0.152507206 0.00958558192 0.152507206 0.00958558192 13.6478873 9.70899628 13.6478873 19.408407 13.6478873 19.408407 0.152507206"></polygon>
        <polygon id="path-3" points="31.9870033 0.499884731 0.0315804055 0.499884731 0.0315804055 44.7347418 31.9870033 44.7347418 63.9424261 44.7347418 63.9424261 0.499884731"></polygon>
        <polygon id="path-5" points="31.9870033 0.499884731 0.0315804055 0.499884731 0.0315804055 44.7347418 31.9870033 44.7347418 63.9424261 44.7347418 63.9424261 0.499884731"></polygon>
    </defs>
    <g id="Website" stroke="none" stroke-width="1" fill="none" fill-rule="evenodd" transform="translate(-713.000000, -1018.000000)">
        <g id="How-it-works" transform="translate(0.000000, 767.000000)">
            <g id="Intro">
                <g id="YouTube-Icon" transform="translate(713.000000, 251.000000)">
                    <rect id="Rectangle-16" stroke="#4A4A4A" stroke-width="2.60000014" x="69.5173914" y="56.5414488" width="326.142857" height="180.67163"></rect>
                    <rect id="Rectangle-16" stroke="#4A4A4A" stroke-width="2.60000014" x="1.30000007" y="1.30000007" width="520.4" height="320.4"></rect>
                    <rect id="Rectangle-17" fill="#D8D8D8" opacity="0.377604167" x="424.247205" y="55.2414487" width="68.8670807" height="45.4929577"></rect>
                    <rect id="Rectangle-17" fill="#D8D8D8" opacity="0.377604167" x="424.247205" y="124.130785" width="68.8670807" height="45.4929577"></rect>
                    <rect id="Rectangle-17" fill="#D8D8D8" opacity="0.377604167" x="424.247205" y="193.020121" width="68.8670807" height="45.4929577"></rect>
                    <rect id="Rectangle-21" fill="#D8D8D8" opacity="0.379999995" x="72.7652174" y="265.158954" width="23.3888199" height="23.3963783"></rect>
                    <rect id="Rectangle-18" stroke="#979797" stroke-width="1.30000007" x="85.7593168" y="17.5473843" width="231.938509" height="16.2472836"></rect>
                    <rect id="Rectangle-20" fill="#D8D8D8" opacity="0.250622736" x="68.2173913" y="241.762575" width="328.742857" height="51.3420523"></rect>
                    <rect id="Rectangle-19" fill="#D8D8D8" opacity="0.379999995" x="72.7652174" y="245.661972" width="183.212422" height="13.6478873"></rect>
                    <g id="yt_logo_rgb_light" transform="translate(9.745342, 18.847082)">
                        <g id="Group-3">
                            <mask id="mask-2" fill="white">
                                <use xlink:href="#path-1"></use>
                            </mask>
                            <g id="Clip-2"></g>
                            <path d="M19.0027771,2.25967753 C18.7795928,1.43033033 18.1220219,0.776977399 17.2869579,0.555278578 C15.7733946,0.152507206 9.70412361,0.152507206 9.70412361,0.152507206 C9.70412361,0.152507206 3.63501242,0.152507206 2.12144904,0.555278578 C1.28638509,0.776977399 0.628814174,1.43033033 0.405629875,2.25967753 C0,3.76332558 0,6.90011792 0,6.90011792 C0,6.90011792 0,10.0370689 0.405629875,11.5405583 C0.628814174,12.3699055 1.28638509,13.0234171 2.12144904,13.2449573 C3.63501242,13.6478873 9.70412361,13.6478873 9.70412361,13.6478873 C9.70412361,13.6478873 15.7733946,13.6478873 17.2869579,13.2449573 C18.1220219,13.0234171 18.7795928,12.3699055 19.0027771,11.5405583 C19.408407,10.0370689 19.408407,6.90011792 19.408407,6.90011792 C19.408407,6.90011792 19.408407,3.76332558 19.0027771,2.25967753" id="Fill-1" fill="#D9252A" mask="url(#mask-2)"></path>
                        </g>
                        <polyline id="Fill-4" fill="#FFFFFE" points="7.79627329 9.74849095 12.9937888 6.82410415 7.79627329 3.89939638 7.79627329 9.74849095"></polyline>
                        <path d="M29.787006,11.2212169 C29.8911568,10.9347367 29.9434671,10.4666706 29.9434671,9.81718352 L29.9434671,7.08036571 C29.9434671,6.44984537 29.8911568,5.98903611 29.787006,5.69760806 C29.6826986,5.40634493 29.498986,5.26054844 29.2360248,5.26054844 C28.9819909,5.26054844 28.8026636,5.40634493 28.6985128,5.69760806 C28.5942054,5.98903611 28.5420517,6.44984537 28.5420517,7.08036571 L28.5420517,9.81718352 C28.5420517,10.4666706 28.5918562,10.9347367 28.6917783,11.2212169 C28.7913871,11.507862 28.9727505,11.6510197 29.2360248,11.6510197 C29.498986,11.6510197 29.6826986,11.507862 29.787006,11.2212169 Z M27.6781484,12.5967177 C27.3014828,12.3295341 27.0338231,11.9139152 26.875326,11.3501907 C26.7165156,10.7867961 26.6372671,10.0368678 26.6372671,9.10073562 L26.6372671,7.82551112 C26.6372671,6.87981307 26.7277921,6.12031892 26.9093121,5.54719358 C27.0906754,4.97406824 27.3739968,4.55630522 27.7597463,4.29357467 C28.1451825,4.03084412 28.6509011,3.89939638 29.2769021,3.89939638 C29.8936626,3.89939638 30.3879481,4.03331804 30.7599152,4.30066658 C31.1317257,4.56818005 31.4039273,4.98610799 31.5763634,5.55445042 C31.7484862,6.12279284 31.8347826,6.87981307 31.8347826,7.82551112 L31.8347826,9.10073562 C31.8347826,10.0368678 31.7508355,10.7891051 31.5830979,11.3574476 C31.4152037,11.92579 31.1430022,12.3414089 30.7666498,12.6038096 C30.3901408,12.8665402 29.8800369,12.9979879 29.2360248,12.9979879 C28.5736885,12.9979879 28.0543442,12.8640663 27.6781484,12.5967177 Z" id="Fill-5" fill="#222321"></path>
                        <path d="M57.3892067,5.42061877 C57.28999,5.54500584 57.2234642,5.74835308 57.1904464,6.03049532 C57.1571018,6.31280274 57.1409198,6.74080657 57.1409198,7.31483717 L57.1409198,7.94635343 L58.5749032,7.94635343 L58.5749032,7.31483717 C58.5749032,6.7505527 58.5559425,6.32238368 58.5181846,6.03049532 C58.4802633,5.73877214 58.411776,5.53311225 58.3123958,5.41351566 C58.2128522,5.29391907 58.0590419,5.23395559 57.8508013,5.23395559 C57.6423972,5.23395559 57.4885868,5.2963969 57.3892067,5.42061877 Z M57.1409198,9.12315746 L57.1409198,9.56817572 C57.1409198,10.1326254 57.1571018,10.5560039 57.1904464,10.8381462 C57.2234642,11.1204536 57.2919515,11.3261135 57.3963987,11.455291 C57.500519,11.5844685 57.6611944,11.6490573 57.8792423,11.6490573 C58.1724791,11.6490573 58.3738546,11.5342512 58.4827151,11.3044738 C58.5914121,11.0750267 58.6505825,10.6922846 58.6600628,10.1564125 L60.3500155,10.2568473 C60.3594958,10.33366 60.364236,10.4388852 60.364236,10.572688 C60.364236,11.3859118 60.1442267,11.9934757 59.7038811,12.3953797 C59.2638625,12.7969533 58.6411022,12.9979879 57.8365808,12.9979879 C56.871057,12.9979879 56.1940299,12.6920585 55.8059897,12.079539 C55.4176226,11.467515 55.2236025,10.520158 55.2236025,9.23796358 L55.2236025,7.70236977 C55.2236025,6.38201679 55.4248146,5.41830613 55.8272387,4.81057704 C56.2294994,4.20317833 56.9182953,3.89939638 57.8934628,3.89939638 C58.5654229,3.89939638 59.0814477,4.02378344 59.4412103,4.27239238 C59.8008095,4.52133169 60.0541634,4.9088643 60.2009453,5.43499019 C60.3477271,5.96128127 60.421118,6.68844176 60.421118,7.61630648 L60.421118,9.12315746 L57.1409198,9.12315746 Z" id="Fill-6" fill="#222321"></path>
                        <path d="M23.0468014,9.20536863 L20.7900621,1.29979879 L22.7592492,1.29979879 L23.5497697,4.88314356 C23.7511225,5.76630131 23.8995312,6.51914395 23.9953268,7.14183195 L24.0529035,7.14183195 C24.1199108,6.69567921 24.268485,5.94749068 24.4984606,4.8971059 L25.3177695,1.29979879 L27.2869565,1.29979879 L25.0015943,9.20536863 L25.0015943,12.9979879 L23.0468014,12.9979879 L23.0468014,9.20536863" id="Fill-7" fill="#222321"></path>
                        <path d="M38.331677,3.89939638 L38.331677,12.2125948 L36.8307448,12.2125948 L36.6639035,11.1954549 L36.6223131,11.1954549 C36.2145676,11.9639294 35.6030294,12.3480885 34.7878583,12.3480885 C34.2227092,12.3480885 33.8058458,12.1674822 33.5371081,11.8056452 C33.2683704,11.4442764 33.1341615,10.8790426 33.1341615,10.1105681 L33.1341615,3.89939638 L35.0519571,3.89939638 L35.0519571,10.0020795 C35.0519571,10.3729703 35.0937074,10.6372455 35.1770481,10.7953736 C35.2603888,10.9536578 35.3993965,11.0326438 35.5939115,11.0326438 C35.7607528,11.0326438 35.9205558,10.9831605 36.0733204,10.8834134 C36.2262449,10.7841345 36.3396586,10.6576945 36.4138814,10.5039372 L36.4138814,3.89939638 L38.331677,3.89939638" id="Fill-8" fill="#222321"></path>
                        <path d="M48.0770186,3.89939638 L48.0770186,12.2125948 L46.5760865,12.2125948 L46.4092451,11.1954549 L46.3678147,11.1954549 C45.9597493,11.9639294 45.348371,12.3480885 44.5331999,12.3480885 C43.9680508,12.3480885 43.5511874,12.1674822 43.2824497,11.8056452 C43.013712,11.4442764 42.8795031,10.8790426 42.8795031,10.1105681 L42.8795031,3.89939638 L44.7972987,3.89939638 L44.7972987,10.0020795 C44.7972987,10.3729703 44.838889,10.6372455 44.9222297,10.7953736 C45.0057304,10.9536578 45.1447382,11.0326438 45.3392531,11.0326438 C45.5060944,11.0326438 45.6658974,10.9831605 45.818662,10.8834134 C45.9715865,10.7841345 46.0850003,10.6576945 46.1592231,10.5039372 L46.1592231,3.89939638 L48.0770186,3.89939638" id="Fill-9" fill="#222321"></path>
                        <polyline id="Fill-10" fill="#222321" points="43.5291925 2.84741352 41.5705796 2.84741352 41.5705796 12.9979879 39.6406005 12.9979879 39.6406005 2.84741352 37.6819876 2.84741352 37.6819876 1.29979879 43.5291925 1.29979879 43.5291925 2.84741352"></polyline>
                        <path d="M52.7023797,9.14940736 C52.7023797,9.77695835 52.6774259,10.2686828 52.6281383,10.624419 C52.5788507,10.9806403 52.4957748,11.2333747 52.3790655,11.3831073 C52.2623562,11.5330016 52.1050389,11.6078679 51.9078886,11.6078679 C51.7550661,11.6078679 51.613713,11.5705156 51.4836743,11.4953259 C51.3533257,11.4204596 51.2480859,11.308241 51.1671798,11.158185 L51.1671798,6.26956114 C51.2299518,6.03574544 51.3376715,5.84364789 51.490339,5.69359189 C51.6430065,5.54402099 51.8088484,5.46899299 51.9884846,5.46899299 C52.1771104,5.46899299 52.3228033,5.54628477 52.4261832,5.70070662 C52.5292532,5.85512847 52.6011696,6.11513929 52.6416226,6.48041568 C52.6820757,6.84553038 52.7023797,7.36539033 52.7023797,8.03967212 L52.7023797,9.14940736 Z M54.4055913,5.6368358 C54.2932218,5.093853 54.1114157,4.7006028 53.860173,4.45692351 C53.6087753,4.21356761 53.2631422,4.09180881 52.8234287,4.09180881 C52.4822905,4.09180881 52.1636261,4.19254683 51.8674356,4.39369948 C51.5712451,4.59517553 51.3421663,4.8597139 51.1806642,5.1874763 L51.1670248,5.1874763 L51.1671798,0.649899396 L49.3763975,0.649899396 L49.3763975,12.8715399 L50.9112874,12.8715399 L51.0999131,12.056904 L51.1402112,12.056904 C51.2837341,12.3471524 51.4991736,12.5766022 51.7865295,12.7452535 C52.0737305,12.9137431 52.3925498,12.9979879 52.7426777,12.9979879 C53.3708619,12.9979879 53.8332043,12.6959356 54.1295498,12.0919925 C54.4257403,11.4877261 54.573913,10.5443784 54.573913,9.26130256 L54.573913,7.89867123 C54.573913,6.93414103 54.5176508,6.18030369 54.4055913,5.6368358 Z" id="Fill-11" fill="#222321"></path>
                    </g>
                    <g id="YouTube-Play-Button" transform="translate(198.804969, 120.881288)">
                        <g id="Group-3" transform="translate(0.755453, 0.000000)">
                            <mask id="mask-4" fill="white">
                                <use xlink:href="#path-3"></use>
                            </mask>
                            <g id="Clip-2"></g>
                            <path d="M62.6060486,7.40672079 C61.8707515,4.68830497 59.7043357,2.54675925 56.953156,1.82007978 C51.96661,0.499884731 31.9709499,0.499884731 31.9709499,0.499884731 C31.9709499,0.499884731 11.9758161,0.499884731 6.98927009,1.82007978 C4.23809042,2.54675925 2.0716746,4.68830497 1.33637749,7.40672079 C0,12.335345 0,22.6170532 0,22.6170532 C0,22.6170532 0,32.8992816 1.33637749,37.8273855 C2.0716746,40.5458014 4.23809042,42.6878673 6.98927009,43.4140266 C11.9758161,44.7347418 31.9709499,44.7347418 31.9709499,44.7347418 C31.9709499,44.7347418 51.96661,44.7347418 56.953156,43.4140266 C59.7043357,42.6878673 61.8707515,40.5458014 62.6060486,37.8273855 C63.9424261,32.8992816 63.9424261,22.6170532 63.9424261,22.6170532 C63.9424261,22.6170532 63.9424261,12.335345 62.6060486,7.40672079" id="Fill-1" fill="#D9252A" mask="url(#mask-4)"></path>
                        </g>
                        <polyline id="Fill-4" fill="#FFFFFE" points="26.4408493 32.6032864 43.0608118 22.7470198 26.4408493 12.8896714 26.4408493 32.6032864"></polyline>
                        <g>
                            <g id="Group-3">
                                <mask id="mask-6" fill="white">
                                    <use xlink:href="#path-5"></use>
                                </mask>
                                <g id="Clip-2"></g>
                                <path d="M62.6060486,7.40672079 C61.8707515,4.68830497 59.7043357,2.54675925 56.953156,1.82007978 C51.96661,0.499884731 31.9709499,0.499884731 31.9709499,0.499884731 C31.9709499,0.499884731 11.9758161,0.499884731 6.98927009,1.82007978 C4.23809042,2.54675925 2.0716746,4.68830497 1.33637749,7.40672079 C0,12.335345 0,22.6170532 0,22.6170532 C0,22.6170532 0,32.8992816 1.33637749,37.8273855 C2.0716746,40.5458014 4.23809042,42.6878673 6.98927009,43.4140266 C11.9758161,44.7347418 31.9709499,44.7347418 31.9709499,44.7347418 C31.9709499,44.7347418 51.96661,44.7347418 56.953156,43.4140266 C59.7043357,42.6878673 61.8707515,40.5458014 62.6060486,37.8273855 C63.9424261,32.8992816 63.9424261,22.6170532 63.9424261,22.6170532 C63.9424261,22.6170532 63.9424261,12.335345 62.6060486,7.40672079" id="Fill-1" fill="#D9252A" mask="url(#mask-6)"></path>
                            </g>
                            <polyline id="Fill-4" fill="#FFFFFE" points="25.6853965 32.6032864 42.3053589 22.7470198 25.6853965 12.8896714 25.6853965 32.6032864"></polyline>
                            <g id="Lines-for-YouTube-Play-Button" transform="translate(5.288170, 17.438967)" stroke="#FFFFFF" stroke-linecap="square" stroke-width="0.75400002">
                                <path d="M1.13317926,27.6748826 L1.13317926,16.3016432" id="Line-5"></path>
                                <path d="M3.39953777,26.9166667 L3.39953777,10.9941315" id="Line-5"></path>
                                <path d="M5.66589629,26.9166667 L5.66589629,2.65375587" id="Line-5"></path>
                                <path d="M7.9322548,26.9166667 L7.9322548,14.0269953" id="Line-5"></path>
                                <path d="M10.1986133,26.9166667 L10.1986133,8.71948357" id="Line-5"></path>
                                <path d="M12.4649718,26.9166667 L12.4649718,18.5762911" id="Line-5"></path>
                                <path d="M14.7313303,26.9166667 L14.7313303,12.5105634" id="Line-5"></path>
                                <path d="M16.9976889,26.9166667 L16.9976889,8.71948357" id="Line-5"></path>
                                <path d="M19.2640474,26.9166667 L19.2640474,17.0598592" id="Line-5"></path>
                                <path d="M21.5304059,26.9166667 L21.5304059,19.334507" id="Line-5"></path>
                                <path d="M23.7967644,26.9166667 L23.7967644,14.7852113" id="Line-5"></path>
                                <path d="M26.0631229,26.9166667 L26.0631229,21.6091549" id="Line-5"></path>
                                <path d="M28.3294814,26.9166667 L28.3294814,17.8180751" id="Line-5"></path>
                                <path d="M30.59584,26.9166667 L30.59584,11.7523474" id="Line-5"></path>
                                <path d="M32.8621985,26.9166667 L32.8621985,9.47769953" id="Line-5"></path>
                                <path d="M35.128557,26.9166667 L35.128557,19.334507" id="Line-5"></path>
                                <path d="M37.3949155,26.9166667 L37.3949155,8.71948357" id="Line-5"></path>
                                <path d="M39.661274,26.9166667 L39.661274,14.0269953" id="Line-5"></path>
                                <path d="M41.9276325,26.9166667 L41.9276325,5.68661972" id="Line-5"></path>
                                <path d="M44.193991,26.9166667 L44.193991,10.9941315" id="Line-5"></path>
                                <path d="M46.4603496,26.9166667 L46.4603496,18.5762911" id="Line-5"></path>
                                <path d="M48.7267081,26.9166667 L48.7267081,0.379107981" id="Line-5"></path>
                                <path d="M50.9930666,26.9166667 L50.9930666,14.7852113" id="Line-5"></path>
                                <path d="M53.2594251,26.9166667 L53.2594251,16.3016432" id="Line-5"></path>
                            </g>
                        </g>
                    </g>
                </g>
            </g>
        </g>
    </g>
</svg>