<?xml version="1.0" encoding="UTF-8"?>
<svg width="1366px" height="113px" viewBox="0 0 1366 113" version="1.1" xmlns="http://www.w3.org/2000/svg" xmlns:xlink="http://www.w3.org/1999/xlink">
    <!-- Generator: Sketch 48.2 (47327) - http://www.bohemiancoding.com/sketch -->
    <title>Music Flow</title>
    <desc>Created with Sketch.</desc>
    <defs></defs>
    <g id="Website" stroke="none" stroke-width="1" fill="none" fill-rule="evenodd" transform="translate(0.000000, -547.000000)">
        <g id="Landing-Page" transform="translate(-98.000000, -209.000000)">
            <g id="Music-Flow" transform="translate(98.000000, 756.000000)">
                <g id="Music-Lines" transform="translate(0.000000, 10.000000)" stroke="#FFFFFF" stroke-linecap="square">
                    <path d="M0,22.1176471 C237.061232,55.2941176 470.047603,55.2941176 698.959112,22.1176471 C1042.32638,-27.6470588 1366,22.1176471 1366,22.1176471" id="Line-4"></path>
                    <path d="M0,41.1176471 C237.061232,74.2941176 470.047603,74.2941176 698.959112,41.1176471 C1042.32638,-8.64705882 1366,41.1176471 1366,41.1176471" id="Line-4"></path>
                    <path d="M0,59.1176471 C237.061232,92.2941176 470.047603,92.2941176 698.959112,59.1176471 C1042.32638,9.35294118 1366,59.1176471 1366,59.1176471" id="Line-4"></path>
                    <path d="M0,77.1176471 C237.061232,110.294118 470.047603,110.294118 698.959112,77.1176471 C1042.32638,27.3529412 1366,77.1176471 1366,77.1176471" id="Line-4"></path>
                </g>
                <g id="Two-Eigth-Note" transform="translate(298.000000, 66.000000)" fill="#FFFFFF">
                    <path d="M11.7996192,3.6786182 L37.0424896,3.58104662 C37.2079509,3.58040706 37.3426023,3.71402151 37.3432418,3.87948285 C37.3433371,3.90412466 37.3403918,3.92868411 37.3344727,3.95260466 L35.2694266,12.2980152 L9.33779757,12.2130166 L11.3651185,4.0200639 C11.4145925,3.82012609 11.5936527,3.67941433 11.7996192,3.6786182 Z" id="Rectangle-9" transform="translate(23.340985, 7.939514) rotate(-14.000000) translate(-23.340985, -7.939514) "></path>
                    <polygon id="Rectangle-10" points="10.7789269 14.7340408 13.5674651 14.7340408 13.6016917 33.5500451 10.6797386 33.5500451"></polygon>
                    <rect id="Rectangle-10" x="33.0326797" y="9.15659574" width="2.92195309" height="21.8956028"></rect>
                    <ellipse id="Oval-5" transform="translate(8.081413, 35.315313) rotate(-29.000000) translate(-8.081413, -35.315313) " cx="8.0814128" cy="35.3153132" rx="6.11828533" ry="4.14641016"></ellipse>
                    <ellipse id="Oval-5" transform="translate(30.434354, 33.687937) rotate(-29.000000) translate(-30.434354, -33.687937) " cx="30.434354" cy="33.6879373" rx="6.11828533" ry="4.14641016"></ellipse>
                </g>
                <g id="Two-Eigth-Note" transform="translate(1219.000000, 44.000000)" fill="#FFFFFF">
                    <path d="M11.7996192,3.6786182 L37.0424896,3.58104662 C37.2079509,3.58040706 37.3426023,3.71402152 37.3432418,3.87948286 C37.3433371,3.90412468 37.3403918,3.92868412 37.3344727,3.95260467 L35.2694266,12.2980152 L9.33779757,12.2130166 L11.3651185,4.02006391 C11.4145925,3.8201261 11.5936527,3.67941433 11.7996192,3.6786182 Z" id="Rectangle-9" transform="translate(23.340985, 7.939514) rotate(-14.000000) translate(-23.340985, -7.939514) "></path>
                    <polygon id="Rectangle-10" points="10.7789269 14.7340408 13.5674651 14.7340408 13.6016917 33.5500451 10.6797386 33.5500451"></polygon>
                    <rect id="Rectangle-10" x="33.0326797" y="9.15659574" width="2.92195309" height="21.8956028"></rect>
                    <ellipse id="Oval-5" transform="translate(8.081413, 35.315313) rotate(-29.000000) translate(-8.081413, -35.315313) " cx="8.0814128" cy="35.3153132" rx="6.11828533" ry="4.14641016"></ellipse>
                    <ellipse id="Oval-5" transform="translate(30.434354, 33.687937) rotate(-29.000000) translate(-30.434354, -33.687937) " cx="30.434354" cy="33.6879373" rx="6.11828533" ry="4.14641016"></ellipse>
                </g>
                <g id="Two-Eigth-Note" transform="translate(787.000000, 25.000000)" fill="#FFFFFF">
                    <path d="M11.7996192,3.6786182 L37.0424896,3.58104662 C37.2079509,3.58040706 37.3426023,3.71402152 37.3432418,3.87948286 C37.3433371,3.90412468 37.3403918,3.92868412 37.3344727,3.95260467 L35.2694266,12.2980152 L9.33779757,12.2130166 L11.3651185,4.02006391 C11.4145925,3.8201261 11.5936527,3.67941433 11.7996192,3.6786182 Z" id="Rectangle-9" transform="translate(23.340985, 7.939514) rotate(-14.000000) translate(-23.340985, -7.939514) "></path>
                    <polygon id="Rectangle-10" points="10.7789269 14.7340408 13.5674651 14.7340408 13.6016917 33.5500451 10.6797386 33.5500451"></polygon>
                    <rect id="Rectangle-10" x="33.0326797" y="9.15659574" width="2.92195309" height="21.8956028"></rect>
                    <ellipse id="Oval-5" transform="translate(8.081413, 35.315313) rotate(-29.000000) translate(-8.081413, -35.315313) " cx="8.0814128" cy="35.3153132" rx="6.11828533" ry="4.14641016"></ellipse>
                    <ellipse id="Oval-5" transform="translate(30.434354, 33.687937) rotate(-29.000000) translate(-30.434354, -33.687937) " cx="30.434354" cy="33.6879373" rx="6.11828533" ry="4.14641016"></ellipse>
                </g>
                <g id="Eight-Note" transform="translate(539.000000, 38.000000)" fill="#FFFFFF" fill-rule="nonzero">
                    <path d="M17.0308966,0 L13.4352759,0 L13.4352759,29.8978085 C11.4471724,29.1174043 8.87451724,29.1064255 6.33682759,30.0478511 C1.79041379,31.7362872 -0.918517241,35.8432447 0.286,39.2196596 C1.49096552,42.5969894 6.15303448,43.9652128 10.699,42.2767766 C14.5604483,40.8431383 17.0864828,37.6647979 17.0246207,34.671266 L17.0308966,10.2202766 C23.3004828,11.2284894 23.7294828,19.3161489 22.9786207,21.5841702 C22.6935172,22.4437128 23.1955862,23.0873404 24.1432414,21.5841702 C30.9032414,10.853383 17.0308966,6.11880851 17.0308966,0 Z" id="Shape"></path>
                </g>
                <g id="Quarter-Note" transform="translate(1006.000000, 0.000000)" fill="#FFFFFF">
                    <polygon id="Rectangle-10" points="17.11583 0 21.3762787 0 21.4285714 31.5 16.9642857 31.5"></polygon>
                    <path d="M12.4983022,40.5 C16.6292764,40.5 20.4804435,38.1782698 21.9306802,35.8606314 C22.384365,35.1355929 22.318033,35.0291036 22.318033,34.2 C22.318033,30.7206061 17.9215897,27.9 12.4983022,27.9 C7.07501465,27.9 2.67857143,30.7206061 2.67857143,34.2 C2.67857143,37.6793939 7.07501465,40.5 12.4983022,40.5 Z" id="Oval-5" transform="translate(12.500000, 34.200000) rotate(-29.000000) translate(-12.500000, -34.200000) "></path>
                </g>
                <g id="Sixteenth-Note" transform="translate(74.000000, 65.000000)" fill="#FFFFFF" fill-rule="nonzero">
                    <path d="M19.1100361,9.4228973 C15.9959072,6.55124324 14.3497474,3.29286486 14.3497474,0 L10.7930464,0 L10.7930464,30.129773 C10.0533711,29.8248649 9.23864948,29.6634919 8.38575258,29.6634919 C6.31598969,29.6634919 4.20473196,30.5905838 2.59342784,32.2069297 C-0.411273196,35.2206919 -0.787335052,39.7472216 1.75499485,42.2975568 C2.84951031,43.3954162 4.36513918,44 6.0224433,44 C8.09220619,44 10.2034639,43.0729081 11.814768,41.4565622 C13.2188351,40.0482054 14.1038608,38.2645405 14.3065928,36.4341405 C14.3355206,36.1727568 14.3486804,35.9133946 14.3486804,35.6567676 L14.349866,35.6567676 L14.349866,19.0063351 C15.0384433,19.8749189 15.822933,20.7179351 16.7029794,21.5294378 C20.4698814,25.0030595 19.6748402,29.4425405 17.8496598,32.188973 L20.8089536,34.1679027 C22.9174845,30.9953838 23.7614897,26.6222595 21.9073814,22.6598811 C23.6607165,18.5949946 23.4239588,13.4010919 19.1100361,9.4228973 Z M14.3504588,9.52718919 C15.0389175,10.3954162 15.8231701,11.2380757 16.7028608,12.0493405 C19.0632062,14.2259135 19.6320412,16.7816 19.2790979,19.0624649 C19.2232577,19.0091892 19.1675361,18.9559135 19.1101546,18.9029946 C16.0107268,16.0450162 14.3662268,12.804 14.3504588,9.52718919 Z" id="XMLID_964_"></path>
                </g>
            </g>
        </g>
    </g>
</svg>